<svg xmlns="http://www.w3.org/2000/svg" viewBox="0 0 180 180">
  <!-- Background with rounded corners -->
  <rect x="0" y="0" width="180" height="180" rx="36" fill="#4a7a9e"/>

  <!-- Folder -->
  <path fill="#7a8a9a" d="M30 25C22.268 25 16 31.268 16 39V141C16 148.732 22.268 155 30 155H150C157.732 155 164 148.732 164 141V54C164 46.268 157.732 40 150 40H98.485C97.258 40 96.082 39.513 95.214 38.645L84.786 28.214C81.973 25.391 78.169 23.8 74.172 23.8L30 25Z"/>

  <!-- Lock shackle (centered at x=90) -->
  <path fill="none" stroke="#3a4958" stroke-width="8" stroke-linecap="round" d="M70 96.5V86.5C70 75.454 78.954 66.5 90 66.5C101.046 66.5 110 75.454 110 86.5V96.5"/>

  <!-- Lock body (centered at x=90, width=50) -->
  <rect x="65" y="96.5" width="50" height="32" rx="5" fill="#3a4958"/>
</svg>
