<svg xmlns="http://www.w3.org/2000/svg" viewBox="0 0 180 180">
  <defs>
    <linearGradient id="bgGradient" x1="0%" y1="0%" x2="100%" y2="100%">
      <stop offset="0%" style="stop-color:#1e293b"/>
      <stop offset="100%" style="stop-color:#0f172a"/>
    </linearGradient>
  </defs>

  <!-- Background with rounded corners -->
  <rect x="0" y="0" width="180" height="180" rx="36" fill="url(#bgGradient)"/>

  <!-- Folder tab -->
  <path d="M30 55 L30 50 Q30 45 35 45 L75 45 L85 58 L145 58 Q150 58 150 63"
        fill="#64748b" opacity="0.7"/>

  <!-- Folder body -->
  <path d="M30 60 L30 135 Q30 140 35 140 L145 140 Q150 140 150 135 L150 63 Q150 63 145 58 L85 58 L75 45 L35 45 Q30 45 30 50 Z"
        fill="#64748b"/>

  <!-- Lock shackle (closed/locked) -->
  <path d="M77 105 L77 92 Q77 79 90 79 Q103 79 103 92 L103 105"
        fill="none" stroke="#94a3b8" stroke-width="6" stroke-linecap="round"/>

  <!-- Lock body -->
  <rect x="72" y="105" width="36" height="27" rx="3" fill="#94a3b8"/>

  <!-- Keyhole -->
  <circle cx="90" cy="114" r="3.5" fill="#1e293b"/>
  <rect x="87.5" y="114" width="5" height="9" fill="#1e293b"/>
</svg>
