<svg xmlns="http://www.w3.org/2000/svg" viewBox="0 0 180 180">
  <g transform="translate(90 90) scale(1.1) translate(-90 -90)">
    <!-- Folder tab -->
    <path d="M20 45 L20 40 Q20 35 25 35 L70 35 L80 50 L155 50 Q160 50 160 55"
          fill="#6B7280" opacity="0.6"/>

    <!-- Folder body -->
    <path d="M20 50 L20 140 Q20 145 25 145 L155 145 Q160 145 160 140 L160 55 Q160 55 155 50 L80 50 L70 35 L25 35 Q20 35 20 40 Z"
          fill="#6B7280"/>

    <!-- Lock shackle (closed/locked) -->
    <path d="M75 102 L75 87 Q75 72 90 72 Q105 72 105 87 L105 102"
          fill="none" stroke="#374151" stroke-width="6" stroke-linecap="round"/>

    <!-- Lock body -->
    <rect x="70" y="102" width="40" height="30" rx="3" fill="#374151"/>

    <!-- Keyhole -->
    <circle cx="90" cy="112" r="4" fill="white"/>
    <rect x="87" y="112" width="6" height="10" fill="white"/>
  </g>
</svg>
